<?xml version="1.0" encoding="UTF-8" standalone="no"?>
<svg
   xmlns:dc="http://purl.org/dc/elements/1.1/"
   xmlns:cc="http://creativecommons.org/ns#"
   xmlns:rdf="http://www.w3.org/1999/02/22-rdf-syntax-ns#"
   xmlns:svg="http://www.w3.org/2000/svg"
   xmlns="http://www.w3.org/2000/svg"
   xmlns:sodipodi="http://sodipodi.sourceforge.net/DTD/sodipodi-0.dtd"
   xmlns:inkscape="http://www.inkscape.org/namespaces/inkscape"
   height="17"
   version="1.1"
   width="17"
   id="svg2"
   inkscape:version="0.48.4 r9939"
   sodipodi:docname="switch_minus.svg">
  <metadata
     id="metadata22">
    <rdf:RDF>
      <cc:Work
         rdf:about="">
        <dc:format>image/svg+xml</dc:format>
        <dc:type
           rdf:resource="http://purl.org/dc/dcmitype/StillImage" />
        <dc:title />
      </cc:Work>
    </rdf:RDF>
  </metadata>
  <defs
     id="defs20" />
  <sodipodi:namedview
     pagecolor="#ffffff"
     bordercolor="#666666"
     borderopacity="1"
     objecttolerance="10"
     gridtolerance="10"
     guidetolerance="10"
     inkscape:pageopacity="0"
     inkscape:pageshadow="2"
     inkscape:window-width="1680"
     inkscape:window-height="973"
     id="namedview18"
     showgrid="false"
     inkscape:zoom="9.8333333"
     inkscape:cx="-17.440678"
     inkscape:cy="12"
     inkscape:window-x="0"
     inkscape:window-y="25"
     inkscape:window-maximized="1"
     inkscape:current-layer="g8" />
  <g
     transform="translate(0,-1035.4)"
     id="g4">
    <g
       style="fill:#2980b9"
       id="g8">
      <g
         id="g3784"
         transform="matrix(0.8,0,0,0.8,-1.1,211.18)">
        <path
           style="fill:#b3b3b3"
           inkscape:connector-curvature="0"
           id="path3786"
           d="m 4,1031.4 c -1.1046,0 -2,0.9 -2,2 v 16 c 0,1.1 0.8954,2 2,2 h 16 c 1.105,0 2,-0.9 2,-2 v -16 c 0,-1.1 -0.895,-2 -2,-2 H 4 z" />
        <path
           style="fill:#edecec;fill-opacity:0.94117647"
           inkscape:connector-curvature="0"
           id="path3788"
           d="m 4,1030.4 c -1.1046,0 -2,0.8954 -2,2 v 16 c 0,1.105 0.8954,2 2,2 h 16 c 1.105,0 2,-0.895 2,-2 v -16 c 0,-1.1046 -0.895,-2 -2,-2 H 4 z" />
      </g>
      <g
         style="fill:#4d4d4d;fill-opacity:1"
         transform="matrix(0.8,0,0,0.8,24.201695,212.4763)"
         id="g3790">
        <rect
           transform="matrix(0,-1,1,0,0,0)"
           style="color:#000000;fill:#b3b3b3;fill-opacity:1;fill-rule:nonzero;stroke:none;stroke-width:10;marker:none;visibility:visible;display:inline;overflow:visible;enable-background:accumulate"
           id="rect3796"
           width="3.0508473"
           height="13.01695"
           x="-1040.905"
           y="-26.135593" />
        <rect
           y="-26.135593"
           x="-1040.7051"
           height="13.01695"
           width="3.0508473"
           id="rect3794"
           style="color:#000000;fill:#4d4d4d;fill-opacity:1;fill-rule:nonzero;stroke:none;stroke-width:10;marker:none;visibility:visible;display:inline;overflow:visible;enable-background:accumulate"
           transform="matrix(0,-1,1,0,0,0)" />
      </g>
    </g>
  </g>
</svg>
